<svg width="25" height="25" viewBox="0 0 25 25" fill="none" xmlns="http://www.w3.org/2000/svg">
<path d="M12.501 9.66504C11.7054 9.66504 10.9423 9.98111 10.3797 10.5437C9.81707 11.1063 9.501 11.8694 9.501 12.665C9.501 13.4607 9.81707 14.2238 10.3797 14.7864C10.9423 15.349 11.7054 15.665 12.501 15.665C13.2966 15.665 14.0597 15.349 14.6223 14.7864C15.1849 14.2238 15.501 13.4607 15.501 12.665C15.501 11.8694 15.1849 11.1063 14.6223 10.5437C14.0597 9.98111 13.2966 9.66504 12.501 9.66504ZM12.501 7.66504C13.8271 7.66504 15.0989 8.19182 16.0365 9.12951C16.9742 10.0672 17.501 11.339 17.501 12.665C17.501 13.9911 16.9742 15.2629 16.0365 16.2006C15.0989 17.1383 13.8271 17.665 12.501 17.665C11.1749 17.665 9.90315 17.1383 8.96547 16.2006C8.02778 15.2629 7.501 13.9911 7.501 12.665C7.501 11.339 8.02778 10.0672 8.96547 9.12951C9.90315 8.19182 11.1749 7.66504 12.501 7.66504ZM19.001 7.41504C19.001 7.74656 18.8693 8.0645 18.6349 8.29892C18.4005 8.53334 18.0825 8.66504 17.751 8.66504C17.4195 8.66504 17.1015 8.53334 16.8671 8.29892C16.6327 8.0645 16.501 7.74656 16.501 7.41504C16.501 7.08352 16.6327 6.76558 16.8671 6.53116C17.1015 6.29674 17.4195 6.16504 17.751 6.16504C18.0825 6.16504 18.4005 6.29674 18.6349 6.53116C18.8693 6.76558 19.001 7.08352 19.001 7.41504ZM12.501 4.66504C10.027 4.66504 9.623 4.67204 8.472 4.72304C7.688 4.76004 7.162 4.86504 6.674 5.05504C6.26562 5.20498 5.89641 5.4453 5.594 5.75804C5.28101 6.06044 5.04035 6.42962 4.89 6.83804C4.7 7.32804 4.595 7.85304 4.559 8.63604C4.507 9.74004 4.5 10.126 4.5 12.665C4.5 15.14 4.507 15.543 4.558 16.694C4.595 17.477 4.7 18.004 4.889 18.491C5.059 18.926 5.259 19.239 5.591 19.571C5.928 19.907 6.241 20.108 6.671 20.274C7.165 20.465 7.691 20.571 8.471 20.607C9.575 20.659 9.961 20.665 12.5 20.665C14.975 20.665 15.378 20.658 16.529 20.607C17.311 20.57 17.837 20.465 18.326 20.276C18.734 20.1254 19.1031 19.8851 19.406 19.573C19.743 19.237 19.944 18.924 20.11 18.493C20.3 18.001 20.406 17.475 20.442 16.693C20.494 15.59 20.5 15.203 20.5 12.665C20.5 10.191 20.493 9.78704 20.442 8.63604C20.405 7.85404 20.299 7.32604 20.11 6.83804C19.9593 6.43006 19.719 6.06102 19.407 5.75804C19.1047 5.44489 18.7355 5.20421 18.327 5.05404C17.837 4.86404 17.311 4.75904 16.529 4.72304C15.426 4.67104 15.04 4.66504 12.5 4.66504M12.5 2.66504C15.217 2.66504 15.556 2.67504 16.623 2.72504C17.687 2.77504 18.413 2.94204 19.05 3.19004C19.71 3.44404 20.266 3.78804 20.822 4.34304C21.3305 4.84294 21.724 5.44763 21.975 6.11504C22.222 6.75204 22.39 7.47804 22.44 8.54304C22.487 9.60904 22.5 9.94804 22.5 12.665C22.5 15.382 22.49 15.721 22.44 16.787C22.39 17.852 22.222 18.577 21.975 19.215C21.7246 19.8828 21.3311 20.4876 20.822 20.987C20.322 21.4954 19.7173 21.8888 19.05 22.14C18.413 22.387 17.687 22.555 16.623 22.605C15.556 22.652 15.217 22.665 12.5 22.665C9.783 22.665 9.444 22.655 8.377 22.605C7.313 22.555 6.588 22.387 5.95 22.14C5.28233 21.8895 4.67753 21.496 4.178 20.987C3.66943 20.4872 3.27596 19.8825 3.025 19.215C2.777 18.578 2.61 17.852 2.56 16.787C2.512 15.721 2.5 15.382 2.5 12.665C2.5 9.94804 2.51 9.60904 2.56 8.54304C2.61 7.47804 2.777 6.75304 3.025 6.11504C3.27524 5.44722 3.6688 4.84236 4.178 4.34304C4.67767 3.83427 5.28243 3.44077 5.95 3.19004C6.587 2.94204 7.312 2.77504 8.377 2.72504C9.445 2.67804 9.784 2.66504 12.501 2.66504" fill="white"/>
</svg>
