<svg width="25" height="25" viewBox="0 0 25 25" fill="none" xmlns="http://www.w3.org/2000/svg">
<path d="M18.5 3.66504C19.2956 3.66504 20.0587 3.98111 20.6213 4.54372C21.1839 5.10633 21.5 5.86939 21.5 6.66504V18.665C21.5 19.4607 21.1839 20.2238 20.6213 20.7864C20.0587 21.349 19.2956 21.665 18.5 21.665H6.5C5.70435 21.665 4.94129 21.349 4.37868 20.7864C3.81607 20.2238 3.5 19.4607 3.5 18.665V6.66504C3.5 5.86939 3.81607 5.10633 4.37868 4.54372C4.94129 3.98111 5.70435 3.66504 6.5 3.66504H18.5ZM18.5 5.66504H6.5C6.23478 5.66504 5.98043 5.7704 5.79289 5.95793C5.60536 6.14547 5.5 6.39982 5.5 6.66504V18.665C5.5 18.9303 5.60536 19.1846 5.79289 19.3721C5.98043 19.5597 6.23478 19.665 6.5 19.665H18.5C18.7652 19.665 19.0196 19.5597 19.2071 19.3721C19.3946 19.1846 19.5 18.9303 19.5 18.665V6.66504C19.5 6.39982 19.3946 6.14547 19.2071 5.95793C19.0196 5.7704 18.7652 5.66504 18.5 5.66504ZM8.5 10.665C8.74493 10.6651 8.98134 10.755 9.16437 10.9178C9.34741 11.0805 9.46434 11.3048 9.493 11.548L9.5 11.665V16.665C9.49972 16.9199 9.40212 17.1651 9.22715 17.3504C9.05218 17.5357 8.81305 17.6473 8.55861 17.6622C8.30416 17.6771 8.05362 17.5944 7.85817 17.4308C7.66271 17.2672 7.5371 17.0351 7.507 16.782L7.5 16.665V11.665C7.5 11.3998 7.60536 11.1455 7.79289 10.9579C7.98043 10.7704 8.23478 10.665 8.5 10.665ZM11.5 9.66504C11.7342 9.665 11.961 9.74717 12.1408 9.8972C12.3206 10.0472 12.4421 10.2556 12.484 10.486C12.6852 10.3693 12.8933 10.2648 13.107 10.173C13.774 9.88804 14.773 9.73104 15.675 10.014C16.148 10.164 16.623 10.444 16.975 10.921C17.29 11.346 17.46 11.863 17.494 12.444L17.5 12.665V16.665C17.4997 16.9199 17.4021 17.1651 17.2272 17.3504C17.0522 17.5357 16.813 17.6473 16.5586 17.6622C16.3042 17.6771 16.0536 17.5944 15.8582 17.4308C15.6627 17.2672 15.5371 17.0351 15.507 16.782L15.5 16.665V12.665C15.5 12.335 15.42 12.181 15.368 12.11C15.2934 12.0172 15.1905 11.9512 15.075 11.922C14.727 11.812 14.226 11.87 13.893 12.012C13.393 12.226 12.935 12.562 12.623 12.873L12.5 13.005V16.665C12.4997 16.9199 12.4021 17.1651 12.2272 17.3504C12.0522 17.5357 11.813 17.6473 11.5586 17.6622C11.3042 17.6771 11.0536 17.5944 10.8582 17.4308C10.6627 17.2672 10.5371 17.0351 10.507 16.782L10.5 16.665V10.665C10.5 10.3998 10.6054 10.1455 10.7929 9.95793C10.9804 9.7704 11.2348 9.66504 11.5 9.66504ZM8.5 7.66504C8.76522 7.66504 9.01957 7.7704 9.20711 7.95793C9.39464 8.14547 9.5 8.39982 9.5 8.66504C9.5 8.93026 9.39464 9.18461 9.20711 9.37215C9.01957 9.55968 8.76522 9.66504 8.5 9.66504C8.23478 9.66504 7.98043 9.55968 7.79289 9.37215C7.60536 9.18461 7.5 8.93026 7.5 8.66504C7.5 8.39982 7.60536 8.14547 7.79289 7.95793C7.98043 7.7704 8.23478 7.66504 8.5 7.66504Z" fill="white"/>
</svg>
